TITLE ""
FILE "Disc4Track45.mp3" MP3
  TRACK 01 AUDIO
    TITLE "Disc4Track45_01"
    INDEX 01 00:00:00
  TRACK 02 AUDIO
    TITLE "Disc4Track45_02"
    INDEX 01 00:01:10
  TRACK 03 AUDIO
    TITLE "Disc4Track45_03"
    INDEX 01 00:03:09
  TRACK 04 AUDIO
    TITLE "Disc4Track45_04"
    INDEX 01 00:04:28
  TRACK 05 AUDIO
    TITLE "Disc4Track45_05"
    INDEX 01 00:08:06
  TRACK 06 AUDIO
    TITLE "Disc4Track45_06"
    INDEX 01 00:08:37
  TRACK 07 AUDIO
    TITLE "Disc4Track45_07"
    INDEX 01 00:09:64
  TRACK 08 AUDIO
    TITLE "Disc4Track45_08"
    INDEX 01 00:11:43
  TRACK 09 AUDIO
    TITLE "Disc4Track45_09"
    INDEX 01 00:12:68
  TRACK 10 AUDIO
    TITLE "Disc4Track45_10"
    INDEX 01 00:16:52
  TRACK 11 AUDIO
    TITLE "Disc4Track45_11"
    INDEX 01 00:17:09
  TRACK 12 AUDIO
    TITLE "Disc4Track45_12"
    INDEX 01 00:18:40
  TRACK 13 AUDIO
    TITLE "Disc4Track45_13"
    INDEX 01 00:21:01
  TRACK 14 AUDIO
    TITLE "Disc4Track45_14"
    INDEX 01 00:22:31
  TRACK 15 AUDIO
    TITLE "Disc4Track45_15"
    INDEX 01 00:25:49
  TRACK 16 AUDIO
    TITLE "Disc4Track45_16"
    INDEX 01 00:26:08
  TRACK 17 AUDIO
    TITLE "Disc4Track45_17"
    INDEX 01 00:27:40
  TRACK 18 AUDIO
    TITLE "Disc4Track45_18"
    INDEX 01 00:28:52
  TRACK 19 AUDIO
    TITLE "Disc4Track45_19"
    INDEX 01 00:30:09
  TRACK 20 AUDIO
    TITLE "Disc4Track45_20"
    INDEX 01 00:33:43
  TRACK 21 AUDIO
    TITLE "Disc4Track45_21"
    INDEX 01 00:33:74
  TRACK 22 AUDIO
    TITLE "Disc4Track45_22"
    INDEX 01 00:35:34
  TRACK 23 AUDIO
    TITLE "Disc4Track45_23"
    INDEX 01 00:36:71
  TRACK 24 AUDIO
    TITLE "Disc4Track45_24"
    INDEX 01 00:38:30
  TRACK 25 AUDIO
    TITLE "Disc4Track45_25"
    INDEX 01 00:41:54
  TRACK 26 AUDIO
    TITLE "Disc4Track45_26"
    INDEX 01 00:42:09
  TRACK 27 AUDIO
    TITLE "Disc4Track45_27"
    INDEX 01 00:43:51
  TRACK 28 AUDIO
    TITLE "Disc4Track45_28"
    INDEX 01 00:44:62
  TRACK 29 AUDIO
    TITLE "Disc4Track45_29"
    INDEX 01 00:46:30
  TRACK 30 AUDIO
    TITLE "Disc4Track45_30"
    INDEX 01 00:46:67
  TRACK 31 AUDIO
    TITLE "Disc4Track45_31"
    INDEX 01 00:48:07
  TRACK 32 AUDIO
    TITLE "Disc4Track45_32"
    INDEX 01 00:51:27
  TRACK 33 AUDIO
    TITLE "Disc4Track45_33"
    INDEX 01 00:52:38
  TRACK 34 AUDIO
    TITLE "Disc4Track45_34"
    INDEX 01 00:55:68
  TRACK 35 AUDIO
    TITLE "Disc4Track45_35"
    INDEX 01 00:56:26
  TRACK 36 AUDIO
    TITLE "Disc4Track45_36"
    INDEX 01 00:57:38
  TRACK 37 AUDIO
    TITLE "Disc4Track45_37"
    INDEX 01 00:59:39
  TRACK 38 AUDIO
    TITLE "Disc4Track45_38"
    INDEX 01 01:00:50
  TRACK 39 AUDIO
    TITLE "Disc4Track45_39"
    INDEX 01 01:03:11
  TRACK 40 AUDIO
    TITLE "Disc4Track45_40"
    INDEX 01 01:03:42
  TRACK 41 AUDIO
    TITLE "Disc4Track45_41"
    INDEX 01 01:04:53
  TRACK 42 AUDIO
    TITLE "Disc4Track45_42"
    INDEX 01 01:12:20
  TRACK 43 AUDIO
    TITLE "Disc4Track45_43"
    INDEX 01 01:13:33
  TRACK 44 AUDIO
    TITLE "Disc4Track45_44"
    INDEX 01 01:16:43
  TRACK 45 AUDIO
    TITLE "Disc4Track45_45"
    INDEX 01 01:16:72
  TRACK 46 AUDIO
    TITLE "Disc4Track45_46"
    INDEX 01 01:18:16
  TRACK 47 AUDIO
    TITLE "Disc4Track45_47"
    INDEX 01 01:20:25
  TRACK 48 AUDIO
    TITLE "Disc4Track45_48"
    INDEX 01 01:21:44
  TRACK 49 AUDIO
    TITLE "Disc4Track45_49"
    INDEX 01 01:23:19
  TRACK 50 AUDIO
    TITLE "Disc4Track45_50"
    INDEX 01 01:23:51
  TRACK 51 AUDIO
    TITLE "Disc4Track45_51"
    INDEX 01 01:24:70
  TRACK 52 AUDIO
    TITLE "Disc4Track45_52"
    INDEX 01 01:27:29
  TRACK 53 AUDIO
    TITLE "Disc4Track45_53"
    INDEX 01 01:28:48
  TRACK 54 AUDIO
    TITLE "Disc4Track45_54"
    INDEX 01 01:30:45
  TRACK 55 AUDIO
    TITLE "Disc4Track45_55"
    INDEX 01 01:31:01
  TRACK 56 AUDIO
    TITLE "Disc4Track45_56"
    INDEX 01 01:32:28
  TRACK 57 AUDIO
    TITLE "Disc4Track45_57"
    INDEX 01 01:33:33
  TRACK 58 AUDIO
    TITLE "Disc4Track45_58"
    INDEX 01 01:34:62
  TRACK 59 AUDIO
    TITLE "Disc4Track45_59"
    INDEX 01 01:35:23
  TRACK 60 AUDIO
    TITLE "Disc4Track45_60"
    INDEX 01 01:36:44
  TRACK 61 AUDIO
    TITLE "Disc4Track45_61"
    INDEX 01 01:40:59
  TRACK 62 AUDIO
    TITLE "Disc4Track45_62"
    INDEX 01 01:42:03
  TRACK 63 AUDIO
    TITLE "Disc4Track45_63"
    INDEX 01 01:42:44
  TRACK 64 AUDIO
    TITLE "Disc4Track45_64"
    INDEX 01 01:43:75
  TRACK 65 AUDIO
    TITLE "Disc4Track45_65"
    INDEX 01 01:46:48
  TRACK 66 AUDIO
    TITLE "Disc4Track45_66"
    INDEX 01 01:48:06
  TRACK 67 AUDIO
    TITLE "Disc4Track45_67"
    INDEX 01 01:51:12
  TRACK 68 AUDIO
    TITLE "Disc4Track45_68"
    INDEX 01 01:51:45
  TRACK 69 AUDIO
    TITLE "Disc4Track45_69"
    INDEX 01 01:52:60
  TRACK 70 AUDIO
    TITLE "Disc4Track45_70"
    INDEX 01 01:55:10
  TRACK 71 AUDIO
    TITLE "Disc4Track45_71"
    INDEX 01 01:56:25
  TRACK 72 AUDIO
    TITLE "Disc4Track45_72"
    INDEX 01 02:00:64
